<svg height="48pt" viewBox="0 0 48 48" width="48pt" xmlns="http://www.w3.org/2000/svg" xmlns:xlink="http://www.w3.org/1999/xlink"><linearGradient id="a" gradientTransform="matrix(41.903 0 0 37.602 5.597 9.898)" gradientUnits="userSpaceOnUse" x1=".179653" x2=".872984" y1=".075839" y2="1.001542"><stop offset="0" stop-color="#00ffd8"/><stop offset=".83888397938" stop-color="#00ffb8"/></linearGradient><linearGradient id="b" gradientTransform="matrix(41.391 0 0 37.599 .5 .5)" gradientUnits="userSpaceOnUse" x1="0" x2=".907488" y1=".5" y2=".920078"><stop offset="0" stop-color="#00c4ff"/><stop offset=".83888397938" stop-color="#0072ff"/></linearGradient><g fill-rule="evenodd"><path d="m13.426 15.6 5.547 3.702-5.547 3.695v5.702l14.099-9.397-14.099-9.404zm31.134-2.944-3.952 2.63c1.424 2.685 2.177 5.675 2.192 8.714 0 4.986-1.981 9.768-5.506 13.294-3.526 3.525-8.308 5.506-13.294 5.506-5.6-.012-10.903-2.52-14.465-6.841l-3.938 2.621c4.308 5.427 10.951 8.92 18.403 8.92 12.958 0 23.5-10.542 23.5-23.5 0-4.114-1.074-7.977-2.94-11.344z" fill="url(#a)"/><path d="m34.576 38.099v-5.702l-5.546-3.695 5.546-3.701v-5.702l-14.098 9.403zm-10.576-37.599c-12.958 0-23.5 10.542-23.5 23.5 0 3.824.921 7.436 2.55 10.63l3.97-2.641c-1.187-2.497-1.808-5.225-1.82-7.989 0-4.986 1.981-9.768 5.506-13.294 3.526-3.525 8.308-5.506 13.294-5.506 5.314.012 10.375 2.272 13.93 6.222l3.961-2.635c-4.313-5.066-10.733-8.287-17.891-8.287z" fill="url(#b)"/></g></svg>